<svg version="1.1" xmlns="http://www.w3.org/2000/svg" xmlns:xlink="http://www.w3.org/1999/xlink" width="94.5" height="53.37723" viewBox="0,0,94.5,53.37723"><g transform="translate(-170.34722,-208.95089)"><g data-paper-data="{&quot;isPaintingLayer&quot;:true}" fill-rule="nonzero" stroke-linejoin="miter" stroke-miterlimit="10" stroke-dasharray="" stroke-dashoffset="0" style="mix-blend-mode: normal"><path d="M174.84723,261.32812v-38.5h85.5v38.5z" fill="#ffb6e9" stroke="#000000" stroke-width="0" stroke-linecap="butt"/><path d="M256.84722,226.32812l-79.5,0.5l71,-2" fill="none" stroke="#ffafaf" stroke-width="3" stroke-linecap="round"/><path d="M261.84722,226.32812l-85.5,0.5l-3,-0.5" fill="none" stroke="#ffafaf" stroke-width="6" stroke-linecap="round"/><path d="M259.34722,230.82812l0.5,28.5h-82l-0.5,-30.5" fill="none" stroke="#ffafaf" stroke-width="6" stroke-linecap="round"/><path d="M216.24207,211.37946c0,-1.10457 0.89543,-2 2,-2c0.9483,0 1.74245,0.65999 1.94817,1.54568c0.36318,-0.50359 0.95494,-0.83139 1.62326,-0.83139c1.10457,0 2,0.89543 2,2c0,1.10457 -0.89543,2 -2,2c-0.26245,0 -0.5131,-0.05056 -0.74274,-0.14246c0.3702,0.36298 0.59988,0.86875 0.59988,1.42817c0,1.04979 -0.80882,1.91068 -1.8373,1.99348c0.42242,0.25089 0.74455,0.65288 0.89192,1.13147c0.36678,-0.42638 0.91027,-0.69638 1.51682,-0.69638c0.90661,0 1.67234,0.60324 1.91768,1.43024c0.02731,-0.0011 0.05475,-0.00167 0.08232,-0.00167c1.10457,0 2,0.89543 2,2c0,1.10457 -0.89543,2 -2,2c-0.90661,0 -1.67233,-0.60324 -1.91767,-1.43024c-0.02731,0.0011 -0.05475,0.00167 -0.08233,0.00167c-0.89945,0 -1.66022,-0.59374 -1.91175,-1.41067c-0.1546,0.17972 -0.3406,0.33166 -0.54948,0.44731c0.11276,0.25036 0.17551,0.52811 0.17551,0.8205c0,1.10457 -0.89543,2 -2,2c-0.68527,0 -1.29005,-0.34464 -1.65045,-0.87006c-0.2417,0.83277 -1.01026,1.44149 -1.92097,1.44149c-1.10457,0 -2,-0.89543 -2,-2c0,-0.1766 0.02289,-0.34787 0.06587,-0.51098c-0.27614,0.14391 -0.59008,0.22526 -0.92301,0.22526c-0.55604,0 -1.05908,-0.22691 -1.42158,-0.59319c-0.10748,1.39575 -1.61476,1.69721 -1.61476,1.69721l-1.10652,0.18169c-0.71428,0 -1.42857,0 -2.14286,0c0,0 -2,0 -2,-2c0,-2 2,-2 2,-2c0.71428,0 1.42857,0 2.14286,0l0.32205,-0.10402c0,0 1.12675,-0.22535 1.84295,0.51962c0.14418,-0.9629 0.97478,-1.70132 1.97785,-1.70132c0.12265,0 0.24271,0.01104 0.35926,0.03218c0.23538,-0.84263 1.00873,-1.46075 1.92646,-1.46075c1.10457,0 2,0.89543 2,2c0,0.75507 -0.41842,1.4124 -1.03605,1.75279c0.52049,0.10358 0.96818,0.40914 1.25793,0.83155c0.14858,-0.51192 0.49624,-0.93918 0.95363,-1.19241c-0.11276,-0.25036 -0.17551,-0.52811 -0.17551,-0.8205c0,-1.04979 0.80882,-1.91068 1.8373,-1.99348c-0.58685,-0.34855 -0.98016,-0.98874 -0.98016,-1.72081c0,-1.10457 0.89543,-2 2,-2c0.26245,0 0.5131,0.05056 0.74274,0.14246c-0.26678,-0.26158 -0.46059,-0.59732 -0.54805,-0.97385c-0.36318,0.50359 -0.95494,0.83139 -1.62326,0.83139c-1.10457,0 -2,-0.89543 -2,-2z" fill="#8c4949" stroke="none" stroke-width="0.5" stroke-linecap="butt"/><path d="M248.67064,217.23661c0,-1.10457 0.89543,-2 2,-2c1.10457,0 2,0.89543 2,2c0,0.64462 -0.30497,1.21802 -0.7785,1.58378c0.19194,0.27961 0.31464,0.61045 0.34341,0.96782c0.34855,-0.58685 0.98874,-0.98016 1.72081,-0.98016c1.10457,0 2,0.89543 2,2c0,1.10457 -0.89543,2 -2,2c-1.04979,0 -1.91067,-0.80882 -1.99347,-1.8373c-0.34855,0.58685 -0.98874,0.98016 -1.72081,0.98016c-1.10457,0 -2,-0.89543 -2,-2c0,-0.64462 0.30497,-1.21802 0.77851,-1.58377c-0.22075,-0.3216 -0.34994,-0.71097 -0.34994,-1.13051z" fill="#8c4949" stroke="none" stroke-width="0.5" stroke-linecap="butt"/><path d="M227.24207,213.80804c0,-1.10457 0.89543,-2 2,-2c1.10457,0 2,0.89543 2,2c0,0.91323 -0.61207,1.68349 -1.44836,1.92296c0.10467,0.24269 0.16265,0.51024 0.16265,0.79133c0,0.72773 -0.38868,1.36469 -0.96977,1.7146c0.00746,0.00299 0.0149,0.00603 0.02232,0.00911c0.51879,0.05031 0.97956,0.29881 1.30564,0.66885c-0.04724,-0.17041 -0.07247,-0.34997 -0.07247,-0.53542c0,-1.10457 0.89543,-2 2,-2c1.06358,0 1.93325,0.83021 1.99633,1.87793c0.09448,-0.0137 0.1911,-0.02078 0.28938,-0.02078c1.10457,0 2,0.89543 2,2c0,1.10457 -0.89543,2 -2,2c-1.06358,0 -1.93325,-0.83021 -1.99633,-1.87793c-0.09448,0.0137 -0.1911,0.02078 -0.28938,0.02078c-0.59792,0 -1.13455,-0.26237 -1.50105,-0.67827c0.04724,0.17041 0.07247,0.34996 0.07247,0.53542c0,1.10457 -0.89543,2 -2,2c-0.27167,0 -0.53068,-0.05416 -0.76683,-0.15228c-1.01287,-0.09821 -1.8046,-0.95193 -1.8046,-1.99058c0,-0.72773 0.38868,-1.36469 0.96977,-1.7146c-0.73586,-0.29532 -1.25549,-1.01539 -1.25549,-1.85683c0,-0.91323 0.61208,-1.6835 1.44837,-1.92296c-0.10467,-0.24269 -0.16266,-0.51023 -0.16266,-0.79133z" fill="#8c4949" stroke="none" stroke-width="0.5" stroke-linecap="butt"/><path d="M243.95636,216.09375c0,-1.10457 0.89543,-2 2,-2c1.10457,0 2,0.89543 2,2c0,0.93445 -0.64085,1.71921 -1.50702,1.93878c0.6408,0.33327 1.07845,1.00328 1.07845,1.7755c0,1.10457 -0.89543,2 -2,2c-1.10457,0 -2,-0.89543 -2,-2c0,-0.93445 0.64085,-1.71921 1.50702,-1.93878c-0.6408,-0.33327 -1.07845,-1.00328 -1.07845,-1.7755z" fill="#8c4949" stroke="none" stroke-width="0.5" stroke-linecap="butt"/><path d="M193.95636,214.37946c0,-1.10457 0.89543,-2 2,-2c1.10457,0 2,0.89543 2,2c0,1.10457 -0.89543,2 -2,2c-0.64344,0 -1.2159,-0.30385 -1.58175,-0.77589c0.00682,0.06723 0.01032,0.13544 0.01032,0.20446c0,0.47066 -0.16258,0.90335 -0.43464,1.24497c0.18511,0.30319 0.29178,0.65951 0.29178,1.04074c0,0.04116 -0.00125,0.08203 -0.0037,0.12258c0.3103,0.17862 0.56817,0.43811 0.7448,0.74969c0.36682,-0.44541 0.92255,-0.72941 1.54461,-0.72941c1.10457,0 2,0.89543 2,2c0,0.02468 -0.00044,0.04925 -0.00133,0.0737c0.21927,-0.15321 0.47066,-0.26358 0.74207,-0.31898c-0.01741,-0.10613 -0.02646,-0.21508 -0.02646,-0.32615c0,-0.06306 0.00292,-0.12545 0.00863,-0.18702c-0.90294,-0.19294 -1.58006,-0.99531 -1.58006,-1.95583c0,-1.10457 0.89543,-2 2,-2c1.10457,0 2,0.89543 2,2c0,0.06306 -0.00292,0.12544 -0.00862,0.18702c0.90294,0.19294 1.58006,0.99531 1.58006,1.95584c0,0.96684 -0.68605,1.77344 -1.59789,1.95956c0.01741,0.10613 0.02646,0.21508 0.02646,0.32615c0,1.10457 -0.89543,2 -2,2c-1.10457,0 -2,-0.89543 -2,-2c0,-0.02468 0.00045,-0.04924 0.00134,-0.0737c-0.32421,0.22653 -0.71868,0.35941 -1.14419,0.35941c-0.74651,0 -1.39749,-0.409 -1.7411,-1.01513c-0.08406,0.10207 -0.17803,0.19565 -0.28045,0.27929c-0.36676,0.44911 -0.92483,0.73584 -1.54988,0.73584c-1.10457,0 -2,-0.89543 -2,-2c0,-0.19063 0.02668,-0.37504 0.07649,-0.54969c-0.48053,-0.36529 -0.79077,-0.94299 -0.79077,-1.59317c0,-0.47066 0.16258,-0.90336 0.43464,-1.24498c-0.14738,-0.24138 -0.24503,-0.51642 -0.27872,-0.8109c-0.26309,0.12733 -0.55831,0.19873 -0.8702,0.19873c-1.10457,0 -2,-0.89543 -2,-2c0,-1.10457 0.89543,-2 2,-2c1.02684,0 1.87294,0.77384 1.98694,1.77016c0.26309,-0.12733 0.55831,-0.19873 0.87021,-0.19873c0.64344,0 1.2159,0.30385 1.58175,0.77589c-0.00682,-0.06723 -0.01032,-0.13544 -0.01032,-0.20446z" fill="#8c4949" stroke="none" stroke-width="0.5" stroke-linecap="butt"/><path d="M180.38493,215.52232c0,-1.10457 0.89543,-2 2,-2c1.10073,0 1.99376,0.88921 1.99997,1.98847c0.22184,-0.08485 0.46265,-0.13134 0.71432,-0.13134c1.10457,0 2,0.89543 2,2c0,0.0907 -0.00604,0.17999 -0.01774,0.26749c0.76114,0.28281 1.30345,1.01576 1.30345,1.87537c0,0.16859 -0.02086,0.3323 -0.06014,0.48871c0.15641,-0.03928 0.32012,-0.06014 0.48871,-0.06014c1.10457,0 2,0.89543 2,2c0,1.10457 -0.89543,2 -2,2c-0.75507,0 -1.4124,-0.41842 -1.75279,-1.03604c-0.18241,0.91662 -0.99127,1.60747 -1.96149,1.60747c-1.10457,0 -2,-0.89543 -2,-2c0,-0.96038 0.6769,-1.76265 1.57964,-1.95575c-0.18644,-0.30395 -0.29393,-0.66155 -0.29393,-1.04425c0,-0.0907 0.00603,-0.17999 0.01773,-0.26749c-0.27844,-0.10346 -0.52759,-0.26715 -0.73162,-0.47525c0.0919,0.22964 0.14246,0.48029 0.14246,0.74274c0,0.96264 -0.6801,1.76642 -1.58602,1.9571c-0.11982,0.99006 -0.96303,1.75718 -1.98541,1.75718c-0.73788,0 -1.38243,-0.39959 -1.72906,-0.99418c-0.74403,-0.29139 -1.27094,-1.01565 -1.27094,-1.86296c0,-0.5327 0.20827,-1.01677 0.54782,-1.3752c-0.50481,-0.36304 -0.83354,-0.95553 -0.83354,-1.6248c0,-1.10457 0.89543,-2 2,-2c0.59792,0 1.13455,0.26238 1.50105,0.67828c-0.04724,-0.17041 -0.07247,-0.34996 -0.07247,-0.53542zM182.38493,217.52232c-0.59792,0 -1.13455,-0.26238 -1.50105,-0.67828c0.04724,0.17041 0.07247,0.34996 0.07247,0.53542c0,0.11945 -0.01047,0.23647 -0.03054,0.35016c0.26747,-0.1327 0.56886,-0.2073 0.88769,-0.2073c0.55942,0 1.06519,0.22967 1.42817,0.59988c-0.09055,-0.22627 -0.14097,-0.47294 -0.14243,-0.73121c-0.22184,0.08485 -0.46265,0.13134 -0.71431,0.13134zM186.87364,221.46218c-0.02264,0.00568 -0.04542,0.01099 -0.06835,0.01589c0.01618,0.02637 0.03176,0.05314 0.04672,0.0803c0.00644,-0.03235 0.01365,-0.06442 0.02164,-0.09619z" fill="#8c4949" stroke="none" stroke-width="0.5" stroke-linecap="butt"/><path d="M200.8135,213.80804c0,-1.10457 0.89543,-2 2,-2c1.10457,0 2,0.89543 2,2c0,1.10457 -0.89543,2 -2,2c-1.10457,0 -2,-0.89543 -2,-2z" fill="#8c4949" stroke="none" stroke-width="0.5" stroke-linecap="butt"/><path d="M207.71992,215.09306c-0.12321,-0.25961 -0.19214,-0.54998 -0.19214,-0.85645c0,-0.83132 0.5072,-1.54417 1.22904,-1.84599c-0.05604,-0.18433 -0.08618,-0.37993 -0.08618,-0.58258c0,-1.10457 0.89543,-2 2,-2c1.10457,0 2,0.89543 2,2c0,0.83132 -0.5072,1.54418 -1.22903,1.846c0.05604,0.18433 0.08617,0.37993 0.08617,0.58257c0,0.63782 -0.29856,1.20591 -0.76356,1.57212c0.12321,0.25961 0.19214,0.54998 0.19214,0.85645c0,1.10457 -0.89543,2 -2,2c-0.49158,0 -0.94174,-0.17736 -1.28999,-0.47157c-0.36638,0.46141 -0.93221,0.75728 -1.56715,0.75728c-1.10457,0 -2,-0.89543 -2,-2c0,-1.10457 0.89543,-2 2,-2c0.49158,0 0.94175,0.17736 1.28999,0.47157c0.09705,-0.12222 0.20809,-0.23283 0.33071,-0.32941z" fill="#8c4949" stroke="none" stroke-width="0.5" stroke-linecap="butt"/><path d="M212.09922,214.37946c0,-1.10457 0.89543,-2 2,-2c1.10457,0 2,0.89543 2,2c0,1.10457 -0.89543,2 -2,2c-1.10457,0 -2,-0.89543 -2,-2z" fill="#8c4949" stroke="none" stroke-width="0.5" stroke-linecap="butt"/><path d="M233.8135,213.23661c0,-1.10457 0.89543,-2 2,-2c1.10457,0 2,0.89543 2,2c0,0.11004 -0.00888,0.218 -0.02598,0.32321c0.68967,0.31554 1.16884,1.01163 1.16884,1.81965c0,0.44663 -0.14639,0.85905 -0.39381,1.19192c0.3172,-0.2115 0.69825,-0.33478 1.1081,-0.33478c1.10457,0 2,0.89543 2,2c0,0.53039 -0.20645,1.01255 -0.54339,1.37052c0.25149,0.33442 0.40053,0.75026 0.40053,1.20091c0,1.10457 -0.89543,2 -2,2c-1.10457,0 -2,-0.89543 -2,-2c0,-0.53039 0.20646,-1.01255 0.5434,-1.37052c-0.25149,-0.33442 -0.40054,-0.75026 -0.40054,-1.20091c0,-0.44663 0.1464,-0.85905 0.39382,-1.19192c-0.3172,0.2115 -0.69826,0.33478 -1.1081,0.33478c-1.10457,0 -2,-0.89543 -2,-2c0,-0.11004 0.00889,-0.218 0.02598,-0.32321c-0.68967,-0.31554 -1.16884,-1.01163 -1.16884,-1.81965z" fill="#8c4949" stroke="none" stroke-width="0.5" stroke-linecap="butt"/><path d="M253.52779,216.09375c0,-1.10457 0.89543,-2 2,-2c1.10457,0 2,0.89543 2,2c0,1.10457 -0.89543,2 -2,2c-1.10457,0 -2,-0.89543 -2,-2z" fill="#8c4949" stroke="none" stroke-width="0.5" stroke-linecap="butt"/><path d="M240.52779,213.66518c0,-1.10457 0.89543,-2 2,-2c1.10457,0 2,0.89543 2,2c0,1.10457 -0.89543,2 -2,2c-1.10457,0 -2,-0.89543 -2,-2z" fill="#8c4949" stroke="none" stroke-width="0.5" stroke-linecap="butt"/><path d="M230.24207,210.95089c0,-1.10457 0.89543,-2 2,-2c1.10457,0 2,0.89543 2,2c0,1.10457 -0.89543,2 -2,2c-1.10457,0 -2,-0.89543 -2,-2z" fill="#8c4949" stroke="none" stroke-width="0.5" stroke-linecap="butt"/><path d="M174.09922,223.37946l85.14285,0.57143l2.28572,0.14286" fill="none" stroke="#ffafaf" stroke-width="6" stroke-linecap="round"/><path d="M225.32719,235.41414c1.3961,0.35509 2.5118,1.64397 3.19122,2.91424c0.43717,0.81734 0.01767,3.92071 0.14366,5.15171c0.33532,3.27642 2.18043,9.1298 -2.63259,10.54971c-2.46096,0.72602 -6.91136,-2.38693 -9.62929,-2.77786c-0.59182,0.55608 -1.44382,0.55608 -1.44382,0.55608c-2.93367,0 -5.8896,0.13101 -8.79579,-0.41071c-4.79997,-0.89472 -12.36897,-5.34072 -9.60012,-11.40861c1.02461,-2.24541 2.38822,-2.78921 4.33163,-3.81293c6.21025,-3.27135 11.88773,-2.31529 17.29992,1.91675l0.29276,0.38697c2.10736,-1.46244 5.07239,-3.51557 6.84243,-3.06537z" fill="#ffafaf" stroke="none" stroke-width="0.5" stroke-linecap="butt"/></g></g></svg>